<svg height="512" viewBox="0 0 56 56" width="512" xmlns="http://www.w3.org/2000/svg" >
<g id="013---Doughnut"><path id="Shape" d="m48 31v-2.5c0-1.3807119-1.1192881-2.5-2.5-2.5s-2.5 1.1192881-2.5 2.5v17.5c0 2.7614237-2.2385763 5-5 5s-5-2.2385763-5-5v-13.11c-1.3166227 1.3437724-3.1187187 2.1010205-5 2.1010205s-3.6833773-.7572481-5-2.1010205v5.11c0 2.7614237-2.2385763 5-5 5s-5-2.2385763-5-5v-9.5c0-1.3807119-1.1192881-2.5-2.5-2.5-1.38071187 0-2.5 1.1192881-2.5 2.5v2.5c-.00471053 1.6744448-.84727927 3.2353744-2.2445148 4.158153-1.39723553.9227785-3.1636283 1.0848897-4.7054852.431847 3.40148488 12.0683756 14.411428 20.404113 26.95 20.404113s23.5485151-8.3357374 26.95-20.404113c-1.5418569.6530427-3.3082497.4909315-4.7054852-.431847-1.3972355-.9227786-2.2398043-2.4837082-2.2445148-4.158153z"/><path id="Shape" d="m28 0c-8.1881902.00201239-15.9651952 3.5881326-21.28337851 9.81415768-5.3181833 6.22602512-7.64456431 14.46799192-6.36662149 22.55584232.64254899 1.2113051 2.02459864 1.8327988 3.35716177 1.5096818 1.33256313-.3231171 2.27646054-1.5086016 2.29283823-2.8796818v-2.5c0-2.4852814 2.01471863-4.5 4.5-4.5 2.4852814 0 4.5 2.0147186 4.5 4.5v9.5c0 1.6568542 1.3431458 3 3 3s3-1.3431458 3-3v-10c0-3.8659932 3.1340068-7 7-7s7 3.1340068 7 7v18c0 1.6568542 1.3431458 3 3 3s3-1.3431458 3-3v-17.5c0-2.4852814 2.0147186-4.5 4.5-4.5s4.5 2.0147186 4.5 4.5v2.5c.0163777 1.3710802.9602751 2.5565647 2.2928382 2.8796818 1.3325632.323117 2.7146128-.2983767 3.3571618-1.5096818 1.2779428-8.0878504-1.0484382-16.3298172-6.3666215-22.55584232-5.3181833-6.22602508-13.0951883-9.81214529-21.2833785-9.81415768zm-22.29 23.71c-.1877666.1893127-.44336246.2957983-.71.2957983s-.5222334-.1064856-.71-.2957983l-1-1c-.39212217-.3921222-.39212217-1.0278778 0-1.42s1.02787783-.3921222 1.42 0l1 1c.18931265.1877666.29579832.4433625.29579832.71s-.10648567.5222334-.29579832.71zm2.58-12.42 1-1c.39212217-.39212216 1.0278778-.39212216 1.42 0 .3921222.3921222.3921222 1.0278778 0 1.42l-1 1c-.39212217.3921222-1.02787782.3921222-1.41999999 0s-.39212217-1.0278778-.00000001-1.42zm3.42 6.42c-1.06 1.06-1.19 1.29-1.71 1.29-.40626507.0023626-.77358004-.2413038-.92937095-.6165185s-.069089-.807391.21937095-1.0934815l1-1c.2536586-.2536586.623374-.3527235.969878-.259878.3465041.0928454.6171546.3634959.71.71.0928455.346504-.0062194.7162194-.259878.969878zm4.58-8.42c.1877666-.18931265.4433625-.29579832.71-.29579832s.5222334.10648567.71.29579832l1 1c.2884599.2860905.3751619.7182668.219371 1.0934815-.155791.3752147-.5231059.6188811-.929371.6165185-.53 0-.67-.26-1.71-1.29-.1893127-.1877666-.2957983-.4433625-.2957983-.71 0-.26663754.1064856-.5222334.2957983-.71zm2.42 14.42c-.1877666.1893127-.4433625.2957983-.71.2957983s-.5222334-.1064856-.71-.2957983l-1-1c-.3921222-.3921222-.3921222-1.0278778 0-1.42s1.0278778-.3921222 1.42 0l1 1c.1893127.1877666.2957983.4433625.2957983.71s-.1064856.5222334-.2957983.71zm3-6c-1.06 1.06-1.19 1.29-1.71 1.29-.4062651.0023626-.77358-.2413038-.929371-.6165185-.1557909-.3752147-.0690889-.807391.219371-1.0934815l1-1c.2536586-.2536586.623374-.3527235.969878-.259878.3465041.0928454.6171546.3634959.71.71.0928455.346504-.0062194.7162194-.259878.969878zm1-12c-1.06 1.06-1.19 1.29-1.71 1.29-.4062651.00236262-.77358-.24130378-.929371-.61651849-.1557909-.37521472-.0690889-.80739105.219371-1.09348151l1-1c.3921222-.39212217 1.0278778-.39212217 1.42 0s.3921222 1.02787783 0 1.42zm4.09-2.42 1-1c.3900375-.38772359 1.0199625-.38772359 1.41 0 .1893127.1877666.2957983.44336246.2957983.71s-.1064856.5222334-.2957983.71l-1 1c-.2536586.25187224-.622421.34928655-.967378.25554791-.3449571-.09373864-.6137016-.36438912-.705-.71-.0912985-.34561089.0087194-.71367567.262378-.96554791zm1.91 14.42c-.1877666.1893127-.4433625.2957983-.71.2957983s-.5222334-.1064856-.71-.2957983l-1-1c-.2536586-.2536586-.3527235-.623374-.259878-.969878.0928454-.3465041.3634959-.6171546.71-.71.346504-.0928455.7162194.0062194.969878.259878l1 1c.1893127.1877666.2957983.4433625.2957983.71s-.1064856.5222334-.2957983.71zm1-7c-1.06 1.06-1.19 1.29-1.71 1.29-.4062651.0023626-.77358-.2413038-.929371-.6165185-.1557909-.3752147-.0690889-.807391.219371-1.0934815l1-1c.2536586-.25365857.623374-.35272352.969878-.25987804.3465041.09284548.6171546.36349595.71.71.0928455.34650404-.0062194.71621944-.259878.96987804zm3.58-6.42c.1877666-.18931265.4433625-.29579832.71-.29579832s.5222334.10648567.71.29579832l1 1c.2884599.28609046.3751619.71826679.219371 1.09348151-.155791.37521471-.5231059.61888111-.929371.61651849-.53 0-.67-.26-1.71-1.29-.1893127-.1877666-.2957983-.44336246-.2957983-.71s.1064856-.5222334.2957983-.71zm2.71 14.71c-.53 0-.67-.26-1.71-1.29-.2536586-.2536586-.3527235-.623374-.259878-.969878.0928454-.3465041.3634959-.6171546.71-.71.346504-.0928455.7162194.0062194.969878.259878l1 1c.2884599.2860905.3751619.7182668.219371 1.0934815-.155791.3752147-.5231059.6188811-.929371.6165185zm3.71 3.71c-1.06 1.06-1.19 1.29-1.71 1.29-.4062651.0023626-.77358-.2413038-.929371-.6165185-.1557909-.3752147-.0690889-.807391.219371-1.0934815l1-1c.3921222-.3921221 1.0278778-.3921221 1.42 0 .3921221.3921222.3921221 1.0278778 0 1.42zm0-12c-1.06 1.06-1.19 1.29-1.71 1.29-.4062651.0023626-.77358-.2413038-.929371-.6165185-.1557909-.3752147-.0690889-.807391.219371-1.0934815l1-1c.3921222-.39212214 1.0278778-.39212212 1.42.00000004.3921221.39212215.3921221 1.02787776 0 1.41999996zm7 8c-.1877666.1893127-.4433625.2957983-.71.2957983s-.5222334-.1064856-.71-.2957983l-1-1c-.3921222-.3921222-.3921222-1.0278778 0-1.42s1.0278778-.3921222 1.42 0l1 1c.1893127.1877666.2957983.4433625.2957983.71s-.1064856.5222334-.2957983.71zm1-6c-.1877666.1893127-.4433625.2957983-.71.2957983s-.5222334-.1064856-.71-.2957983l-1-1c-.3921221-.3921222-.3921221-1.0278778 0-1.42.3921222-.39212212 1.0278778-.39212214 1.42 0l1 1c.1893127.1877666.2957983.4433625.2957983.71s-.1064856.5222334-.2957983.71zm5 10c-1.06 1.06-1.19 1.29-1.71 1.29-.4062651.0023626-.77358-.2413038-.929371-.6165185-.1557909-.3752147-.0690889-.807391.219371-1.0934815l1-1c.3921222-.3921221 1.0278778-.3921221 1.42 0 .3921221.3921222.3921221 1.0278778 0 1.42z"/></g></svg>